<?xml version="1.0" encoding="UTF-8" standalone="no"?>
<!-- Created with Inkscape (http://www.inkscape.org/) -->
<svg
   xmlns:dc="http://purl.org/dc/elements/1.1/"
   xmlns:cc="http://creativecommons.org/ns#"
   xmlns:rdf="http://www.w3.org/1999/02/22-rdf-syntax-ns#"
   xmlns:svg="http://www.w3.org/2000/svg"
   xmlns="http://www.w3.org/2000/svg"
   xmlns:sodipodi="http://sodipodi.sourceforge.net/DTD/sodipodi-0.dtd"
   xmlns:inkscape="http://www.inkscape.org/namespaces/inkscape"
   width="210mm"
   height="297mm"
   id="svg4060"
   sodipodi:version="0.32"
   inkscape:version="0.46"
   sodipodi:docname="mini-mi-editor.svg"
   inkscape:output_extension="org.inkscape.output.svg.inkscape">
  <defs
     id="defs4062">
    <inkscape:perspective
       sodipodi:type="inkscape:persp3d"
       inkscape:vp_x="0 : 526.18109 : 1"
       inkscape:vp_y="0 : 1000 : 0"
       inkscape:vp_z="744.09448 : 526.18109 : 1"
       inkscape:persp3d-origin="372.04724 : 350.78739 : 1"
       id="perspective4068" />
  </defs>
  <sodipodi:namedview
     id="base"
     pagecolor="#ffffff"
     bordercolor="#666666"
     borderopacity="1.0"
     inkscape:pageopacity="0.0"
     inkscape:pageshadow="2"
     inkscape:zoom="0.70710678"
     inkscape:cx="380.86926"
     inkscape:cy="723.18718"
     inkscape:document-units="px"
     inkscape:current-layer="layer2"
     showgrid="false"
     inkscape:window-width="1280"
     inkscape:window-height="953"
     inkscape:window-x="0"
     inkscape:window-y="25" />
  <metadata
     id="metadata4065">
    <rdf:RDF>
      <cc:Work
         rdf:about="">
        <dc:format>image/svg+xml</dc:format>
        <dc:type
           rdf:resource="http://purl.org/dc/dcmitype/StillImage" />
      </cc:Work>
    </rdf:RDF>
  </metadata>
  <g
     inkscape:groupmode="layer"
     id="layer2"
     inkscape:label="fundo">
    <rect
       style="opacity:1;fill:#ffffff;fill-opacity:1;fill-rule:nonzero;stroke:none;stroke-width:2;stroke-linecap:butt;stroke-linejoin:miter;marker:none;marker-start:none;marker-mid:none;marker-end:none;stroke-miterlimit:4;stroke-dasharray:12, 12;stroke-dashoffset:0;stroke-opacity:1;visibility:visible;display:inline;overflow:visible;enable-background:accumulate"
       id="rect4654"
       width="589.99945"
       height="154.71353"
       x="78.197289"
       y="342.37173"
       inkscape:export-filename="/var/www/mini-mi/editor/img-superior/superior003.png"
       inkscape:export-xdpi="90"
       inkscape:export-ydpi="90" />
    <rect
       y="497.08527"
       x="78.197289"
       height="105.76031"
       width="589.99945"
       id="rect4658"
       style="opacity:1;fill:#ffffff;fill-opacity:1;fill-rule:nonzero;stroke:none;stroke-width:2;stroke-linecap:butt;stroke-linejoin:miter;marker:none;marker-start:none;marker-mid:none;marker-end:none;stroke-miterlimit:4;stroke-dasharray:12, 12;stroke-dashoffset:0;stroke-opacity:1;visibility:visible;display:inline;overflow:visible;enable-background:accumulate"
       inkscape:export-filename="/var/www/mini-mi/editor/img-inferior/inferior003.png"
       inkscape:export-xdpi="90.203964"
       inkscape:export-ydpi="90.203964" />
    <rect
       y="140.84673"
       x="78.197289"
       height="105.24211"
       width="589.99945"
       id="rect4660"
       style="opacity:1;fill:#ffffff;fill-opacity:1;fill-rule:nonzero;stroke:none;stroke-width:2;stroke-linecap:butt;stroke-linejoin:miter;marker:none;marker-start:none;marker-mid:none;marker-end:none;stroke-miterlimit:4;stroke-dasharray:12, 12;stroke-dashoffset:0;stroke-opacity:1;visibility:visible;display:inline;overflow:visible;enable-background:accumulate"
       inkscape:export-filename="/var/www/mini-mi/editor/img-acessorio/acessorio000.png"
       inkscape:export-xdpi="90"
       inkscape:export-ydpi="90" />
    <rect
       y="246.08884"
       x="78.197289"
       height="96.282158"
       width="589.99945"
       id="rect4662"
       style="opacity:1;fill:#ffffff;fill-opacity:1;fill-rule:nonzero;stroke:none;stroke-width:2;stroke-linecap:butt;stroke-linejoin:miter;marker:none;marker-start:none;marker-mid:none;marker-end:none;stroke-miterlimit:4;stroke-dasharray:12, 12;stroke-dashoffset:0;stroke-opacity:1;visibility:visible;display:inline;overflow:visible;enable-background:accumulate"
       inkscape:export-filename="/var/www/mini-mi/editor/img-rosto/rosto000.png"
       inkscape:export-xdpi="90"
       inkscape:export-ydpi="90" />
  </g>
  <g
     inkscape:label="base"
     inkscape:groupmode="layer"
     id="layer1">
    <path
       style="fill:none;fill-rule:evenodd;stroke:#b3b3b3;stroke-width:0.99999988px;stroke-linecap:butt;stroke-linejoin:miter;stroke-opacity:1;display:inline"
       d="M 78.697214,602.34584 L 667.69687,602.34584"
       id="path3363" />
    <path
       id="path3379"
       d="M 78.697214,183.30224 L 667.69687,183.30224"
       style="fill:none;fill-rule:evenodd;stroke:#b3b3b3;stroke-width:0.99999988px;stroke-linecap:butt;stroke-linejoin:miter;stroke-opacity:1;display:inline" />
    <path
       style="fill:none;fill-rule:evenodd;stroke:#b3b3b3;stroke-width:0.99999988px;stroke-linecap:butt;stroke-linejoin:miter;stroke-opacity:1;display:inline"
       d="M 78.697214,288.06315 L 667.69687,288.06315"
       id="path3381" />
    <path
       id="path3383"
       d="M 78.697214,392.82404 L 667.69687,392.82404"
       style="fill:none;fill-rule:evenodd;stroke:#b3b3b3;stroke-width:0.99999988px;stroke-linecap:butt;stroke-linejoin:miter;stroke-opacity:1;display:inline" />
    <path
       style="fill:none;fill-rule:evenodd;stroke:#b3b3b3;stroke-width:0.99999988px;stroke-linecap:butt;stroke-linejoin:miter;stroke-opacity:1;display:inline"
       d="M 78.697214,497.58494 L 667.69687,497.58494"
       id="path3385" />
    <path
       style="fill:#ffffff;fill-opacity:1;stroke:none;stroke-width:2;stroke-linecap:round;stroke-linejoin:round;stroke-miterlimit:4;stroke-dasharray:8, 8;stroke-dashoffset:0;stroke-opacity:1;display:inline"
       d="M 373.21264,182.09632 L 370.49532,182.12755 L 370.46409,182.12755 L 367.778,182.22125 L 367.09086,182.28372 L 366.90346,182.28372 C 364.81709,182.40692 362.74004,182.603 360.68798,182.84592 C 360.67182,182.84781 360.67303,182.84395 360.65675,182.84592 L 359.93838,182.93962 C 359.87292,182.94784 359.81643,182.96247 359.75098,182.97086 C 358.87514,183.08268 357.9964,183.18122 357.12736,183.31443 C 356.57298,183.39934 356.02355,183.50193 355.47198,183.59553 L 354.53497,183.7517 L 354.50374,183.7517 L 354.37881,183.7517 L 354.37881,183.78293 C 352.31247,184.15617 350.24857,184.60277 348.22579,185.09474 C 348.16781,185.10873 348.12747,185.11181 348.06963,185.12597 L 346.85152,185.43831 L 346.82028,185.43831 L 344.509,186.06298 L 344.29037,186.12545 L 342.16648,186.75012 L 342.13525,186.78135 C 340.15897,187.39039 338.21969,188.0289 336.29457,188.74907 L 336.16964,188.7803 L 335.51373,189.0614 L 334.48303,189.4362 L 333.35862,189.90471 L 332.10928,190.40444 L 331.45337,190.71678 C 331.17912,190.83543 330.88316,190.93951 330.61007,191.06035 L 330.3602,191.18528 C 328.44797,192.03724 326.55744,192.94217 324.70692,193.9026 L 324.67569,193.9026 L 322.86414,194.87084 L 320.77149,196.02648 L 320.64656,196.12018 L 320.61533,196.12018 L 319.17858,196.96349 L 319.14735,197.02596 C 317.40013,198.07163 315.67393,199.16348 313.99381,200.30548 L 313.83764,200.36795 L 312.05733,201.61729 L 309.99591,203.1165 L 309.21508,203.74117 L 308.74657,204.05351 L 308.74657,204.11597 C 307.16612,205.33845 305.63174,206.61824 304.12401,207.92647 C 304.11064,207.93813 304.07499,207.94613 304.06154,207.9577 L 303.87414,208.08264 L 302.18752,209.55061 L 302.18752,209.58185 L 300.31351,211.29969 L 299.25157,212.36163 L 299.22034,212.39287 C 297.79735,213.79197 296.44001,215.25714 295.09751,216.73433 C 295.07831,216.75554 295.05425,216.74434 295.03504,216.76556 L 294.87887,216.8905 L 293.34843,218.63958 L 293.31719,218.67081 L 291.69305,220.57606 L 291.66181,220.60729 L 290.78727,221.70046 L 290.75604,221.76293 C 289.51025,223.31841 288.32235,224.91608 287.16418,226.54167 L 286.97678,226.72907 L 285.6025,228.72801 L 284.22823,230.8519 L 284.19699,230.8519 L 283.50985,231.9763 L 283.50985,232.07 C 282.46328,233.75264 281.46445,235.44846 280.51143,237.19231 C 280.50078,237.21164 280.45951,237.23544 280.44897,237.25477 L 280.32403,237.41094 L 280.32403,237.44218 L 279.10592,239.69099 L 279.10592,239.72223 L 277.98151,242.00227 L 277.95028,242.03351 L 277.51301,243.03298 L 277.51301,243.09545 C 276.66751,244.903 275.88383,246.73115 275.13926,248.59255 L 274.98309,248.81119 L 274.88939,249.06106 L 274.88939,249.09229 L 273.98362,251.49727 L 273.95238,251.49727 L 273.10908,253.90226 L 273.10908,253.93349 L 272.82798,254.7768 L 272.85921,254.8705 C 272.23387,256.77619 271.62845,258.69716 271.11013,260.64871 L 271.04766,260.80487 L 270.86026,261.42955 L 270.26682,263.95946 L 269.70462,266.52061 L 269.61092,266.95788 L 269.64215,267.08282 C 269.2851,268.87317 268.97051,270.66467 268.70515,272.48622 C 268.57973,272.48098 268.46198,272.45499 268.33034,272.45499 C 259.29184,272.45499 251.96396,279.84109 251.96396,288.88384 C 251.96396,297.65871 258.88222,304.77076 267.5495,305.18775 L 267.5495,310.77856 L 267.5495,311.68433 L 267.58074,329.58116 L 267.58074,335.82787 L 267.58074,342.10581 L 267.58074,348.35252 L 267.58074,350.1953 C 258.11914,349.35868 247.358,348.6068 236.22224,348.66486 C 221.46155,348.74189 206.10275,350.2276 192.52649,354.69294 C 186.5906,356.61778 180.82261,358.91458 176.12887,362.31392 C 171.43512,365.71325 167.83612,370.24549 166.384,376.43149 C 166.30987,376.74698 166.21025,377.09179 166.13413,377.49343 C 166.10837,377.62515 166.10078,377.66102 166.1029,377.6496 C 166.03438,378.02635 165.96726,378.42888 165.9155,378.80524 C 165.91138,378.83724 165.89469,378.90632 165.88426,378.99264 C 165.88532,378.98441 165.89784,379.00604 165.88426,379.11758 C 165.83964,379.50866 165.783,379.9324 165.75933,380.33568 C 165.75711,380.36253 165.7687,380.42802 165.75933,380.55432 C 165.75887,380.5706 165.75887,380.56934 165.75933,380.58555 C 165.75933,380.7514 165.75606,380.92438 165.75933,381.11652 C 165.75956,381.13396 165.75887,381.16129 165.75933,381.17899 C 165.75569,381.38012 165.75933,381.56752 165.75933,381.74119 C 165.75887,381.75746 165.75887,381.78739 165.75933,381.80366 C 165.7687,381.9295 165.75698,381.99443 165.75933,382.0223 C 165.79494,382.45439 165.825,382.91119 165.88426,383.36534 C 165.89245,383.43303 165.90683,383.48583 165.9155,383.55274 C 165.96702,383.92532 166.03673,384.31317 166.1029,384.67715 C 166.1009,384.66658 166.10871,384.70276 166.13413,384.83332 C 166.20345,385.19966 166.27956,385.54919 166.35277,385.86402 C 166.39644,386.03604 166.44073,386.10466 166.44647,386.11389 C 167.93045,392.19103 171.48876,396.65224 176.12887,400.01282 C 180.82261,403.41205 186.5906,405.70894 192.52649,407.63381 C 216.35566,415.47148 245.60485,414.07759 267.61197,412.13144 L 267.61197,417.22251 L 267.61197,423.46922 L 267.61197,423.50046 L 267.61197,425.09337 L 267.61197,442.27182 L 267.61197,448.54977 L 267.61197,454.79648 L 267.61197,461.04319 L 267.61197,462.16759 L 267.61197,467.32113 L 267.61197,473.56784 L 267.61197,479.84579 L 267.61197,479.87702 L 267.64321,492.37044 L 267.64321,498.61715 L 267.64321,504.8951 L 267.64321,511.14181 L 267.64321,512.23498 L 267.64321,563.61418 C 267.64322,585.30586 285.28845,602.90599 306.96626,602.90599 C 328.64407,602.90585 346.22685,585.3053 346.22685,563.61418 L 346.22685,513.01582 L 348.72553,513.01582 L 354.97224,513.01582 L 361.25019,513.01582 L 367.4969,513.01582 L 373.74361,513.01582 L 380.02156,513.01582 L 386.26827,513.01582 L 392.51498,513.01582 L 398.79293,513.01582 L 400.16721,513.01582 L 400.16721,563.61418 C 400.1673,585.30522 417.78123,602.90599 439.45903,602.90599 C 461.13672,602.90585 478.75085,585.30585 478.75085,563.61418 L 478.75085,512.23498 L 478.75085,510.07987 L 478.75085,503.80192 L 478.75085,497.55521 L 478.75085,491.27727 L 478.78208,481.12636 L 478.78208,478.75261 L 478.78208,472.53713 L 478.78208,466.22796 L 478.78208,459.98125 L 478.78208,453.73454 L 478.78208,447.45659 L 478.78208,441.20988 L 478.81331,422.43851 L 478.81331,416.16057 L 478.81331,412.13144 C 500.81773,414.07649 530.01569,415.46866 553.83633,407.63381 C 559.77232,405.70894 565.5402,403.41199 570.23395,400.01282 C 574.86842,396.65637 578.42899,392.18001 579.91635,386.11389 C 579.91081,386.12273 579.93855,386.04974 579.97882,385.89526 C 579.98458,385.87742 580.00478,385.8849 580.01005,385.86402 C 580.08327,385.54911 580.15936,385.19966 580.22869,384.83332 C 580.25436,384.70198 580.26203,384.66618 580.25992,384.67715 C 580.32609,384.31306 580.39579,383.92526 580.44732,383.55274 C 580.45608,383.48481 580.47036,383.43264 580.47856,383.36534 C 580.5378,382.91119 580.56791,382.45445 580.60349,382.0223 C 580.60573,381.99523 580.62537,381.92967 580.63472,381.80366 C 580.63519,381.78738 580.63518,381.75747 580.63472,381.74119 C 580.63473,381.56751 580.63836,381.38019 580.63472,381.17899 C 580.63439,381.16152 580.63518,381.13421 580.63472,381.11652 C 580.63802,380.92445 580.63472,380.75146 580.63472,380.58555 C 580.63519,380.56927 580.63518,380.57052 580.63472,380.55432 C 580.62538,380.42816 580.60573,380.33154 580.60349,380.30445 C 580.57973,379.90142 580.55443,379.50879 580.50979,379.11758 C 580.49611,379.00706 580.47751,378.98457 580.47856,378.99264 C 580.468,378.90608 580.4513,378.83685 580.44732,378.80524 C 580.39555,378.42872 580.32831,378.02629 580.25992,377.6496 C 580.26202,377.66079 580.25433,377.62476 580.22869,377.49343 C 580.1526,377.09172 580.05297,376.74688 579.97882,376.43149 C 578.52659,370.2455 574.92757,365.71324 570.23395,362.31392 C 565.54019,358.91459 559.77233,356.61779 553.83633,354.69294 C 540.26003,350.22759 524.93262,348.74188 510.17181,348.66486 C 499.04553,348.60681 488.26908,349.35954 478.81331,350.1953 L 478.81331,347.29058 L 478.81331,341.01264 L 478.81331,334.76593 L 478.81331,328.48798 L 478.84455,309.74785 L 478.84455,305.18775 C 487.50177,304.7584 494.43009,297.65173 494.43009,288.88384 C 494.43009,279.83976 487.07098,272.45499 478.03248,272.45499 C 477.92894,272.45499 477.82516,272.45373 477.72014,272.45499 C 477.70479,272.3491 477.7046,272.2484 477.68891,272.14265 C 477.68656,272.12669 477.69124,272.12737 477.68891,272.11142 L 477.62644,271.73662 L 477.62644,271.70538 L 477.34534,270.08124 L 477.2204,269.113 L 477.18917,269.113 L 476.90807,267.73872 L 476.68943,266.52061 L 476.5645,265.89594 L 476.53326,265.86471 C 476.10642,263.84835 475.63648,261.84022 475.09652,259.86787 L 475.09652,259.77417 L 474.84665,258.89963 L 474.84665,258.86839 L 474.09705,256.40094 L 474.09705,256.36971 L 474.00335,256.18231 L 473.31621,253.93349 L 473.31621,253.90226 L 473.22251,253.74609 L 473.19127,253.71486 C 472.52553,251.76324 471.81093,249.83532 471.03616,247.93665 C 471.02361,247.9059 471.01758,247.87377 471.00492,247.84295 L 470.78629,247.31198 L 470.53642,246.68731 L 470.53642,246.65607 L 469.50571,244.34479 L 469.50571,244.31356 L 468.91228,243.03298 L 468.47501,242.06474 L 468.41254,242.03351 C 467.52111,240.18095 466.59585,238.38967 465.60152,236.59887 L 465.57028,236.47394 L 464.85191,235.22459 L 464.85191,235.19336 L 463.5401,233.00701 L 462.32199,231.07053 L 462.29076,231.0393 C 461.20999,229.3451 460.09037,227.69994 458.91754,226.07316 L 458.8863,226.0107 L 458.7926,225.82329 L 458.2304,225.10492 L 457.85559,224.57395 L 456.79365,223.23091 L 456.32515,222.575 L 456.32515,222.54377 L 455.38814,221.41936 C 455.23134,221.22521 455.07787,221.019 454.91964,220.82593 L 454.88841,220.82593 C 453.58829,219.24016 452.24769,217.71015 450.85928,216.20336 C 450.83198,216.1736 450.8241,216.13925 450.79681,216.10966 L 449.6724,214.89155 L 449.6724,214.86032 L 447.92332,213.08 L 447.89209,213.04877 L 447.67345,212.86137 L 446.39288,211.58079 L 446.33041,211.58079 C 444.85405,210.16174 443.32689,208.75883 441.77031,207.42673 L 441.70784,207.33303 L 440.8333,206.64589 L 440.39603,206.27109 L 440.39603,206.23986 L 439.02176,205.17791 L 438.42832,204.67818 L 438.42832,204.64694 L 437.24144,203.74117 C 437.09447,203.62878 436.92062,203.50921 436.77294,203.3976 C 435.12701,202.15371 433.43211,200.95354 431.7131,199.80574 C 431.69449,199.79329 431.66938,199.75571 431.65064,199.74328 L 431.55694,199.71204 C 430.91392,199.28421 430.27332,198.84556 429.62045,198.43147 L 427.99631,197.40076 L 427.96508,197.40076 L 427.65274,197.21336 C 427.58095,197.17001 427.50601,197.13162 427.43411,197.08842 L 426.3097,196.40129 L 426.24723,196.40129 C 424.45269,195.3547 422.64088,194.37582 420.78136,193.4341 C 420.77151,193.42916 420.75996,193.40779 420.75012,193.40287 L 419.46955,192.77819 C 419.30559,192.69806 419.16558,192.60769 419.00104,192.52833 L 417.3769,191.74749 C 417.34411,191.73228 417.31608,191.73137 417.2832,191.71625 L 416.68976,191.43515 L 416.65853,191.43515 L 415.22178,190.81048 C 415.16476,190.78566 415.12277,190.77276 415.06562,190.74801 C 413.17003,189.9272 411.23851,189.1475 409.28741,188.43673 L 409.19371,188.37426 L 408.69397,188.2181 L 407.10106,187.65589 L 407.06982,187.65589 L 406.44515,187.46849 L 404.63361,186.84382 L 404.60237,186.84382 L 404.19634,186.71888 C 403.86364,186.61667 403.53096,186.53677 403.19686,186.43778 C 401.18849,185.8425 399.16271,185.29048 397.10632,184.81364 C 397.09099,184.81002 397.09042,184.81724 397.07508,184.81364 L 397.04385,184.7824 L 394.98244,184.34513 C 394.81182,184.30929 394.65357,184.28649 394.4827,184.25143 L 392.63992,183.87663 L 391.92155,183.7517 L 391.89031,183.7517 L 390.92207,183.59553 C 388.88617,183.25064 386.84267,182.94724 384.76906,182.72099 L 384.70659,182.72099 L 384.01946,182.62729 L 383.98822,182.62729 L 383.05121,182.56482 L 381.3646,182.40865 L 381.33337,182.40865 L 380.73993,182.34619 L 380.615,182.34619 C 380.53372,182.34048 380.44652,182.35158 380.36513,182.34619 L 378.67852,182.22125 L 378.64728,182.22125 L 378.39741,182.22125 C 378.38922,182.22087 378.37438,182.22164 378.36618,182.22125 C 376.66111,182.13925 374.93797,182.09632 373.21264,182.09632 z"
       id="path4650" />
    <text
       xml:space="preserve"
       style="font-size:13.03082466px;font-style:normal;font-weight:normal;fill:#b3b3b3;fill-opacity:1;stroke:none;stroke-width:1px;stroke-linecap:butt;stroke-linejoin:miter;stroke-opacity:1;display:inline;font-family:Bitstream Vera Sans"
       x="85.233521"
       y="592.7558"
       id="text3387"
       transform="scale(0.9997032,1.0002969)"><tspan
         sodipodi:role="line"
         id="tspan3389"
         x="85.233521"
         y="592.7558"
         style="font-size:15.92656422px;fill:#b3b3b3">1</tspan></text>
    <text
       id="text3391"
       y="488.02606"
       x="85.587357"
       style="font-size:13.03082466px;font-style:normal;font-weight:normal;fill:#b3b3b3;fill-opacity:1;stroke:none;stroke-width:1px;stroke-linecap:butt;stroke-linejoin:miter;stroke-opacity:1;display:inline;font-family:Bitstream Vera Sans"
       xml:space="preserve"
       transform="scale(0.9997032,1.0002969)"><tspan
         style="font-size:15.92656422px;fill:#b3b3b3"
         y="488.02606"
         x="85.587357"
         id="tspan3393"
         sodipodi:role="line">2</tspan></text>
    <text
       xml:space="preserve"
       style="font-size:13.03082466px;font-style:normal;font-weight:normal;fill:#b3b3b3;fill-opacity:1;stroke:none;stroke-width:1px;stroke-linecap:butt;stroke-linejoin:miter;stroke-opacity:1;display:inline;font-family:Bitstream Vera Sans"
       x="85.40461"
       y="383.07071"
       id="text3395"
       transform="scale(0.9997032,1.0002969)"><tspan
         sodipodi:role="line"
         id="tspan3397"
         x="85.40461"
         y="383.07071"
         style="font-size:15.92656422px;fill:#b3b3b3">3</tspan></text>
    <text
       id="text3399"
       y="278.56653"
       x="85.431831"
       style="font-size:13.03082466px;font-style:normal;font-weight:normal;fill:#b3b3b3;fill-opacity:1;stroke:none;stroke-width:1px;stroke-linecap:butt;stroke-linejoin:miter;stroke-opacity:1;display:inline;font-family:Bitstream Vera Sans"
       xml:space="preserve"
       transform="scale(0.9997032,1.0002969)"><tspan
         style="font-size:15.92656422px;fill:#b3b3b3"
         y="278.56653"
         x="85.431831"
         id="tspan3401"
         sodipodi:role="line">4</tspan></text>
    <text
       xml:space="preserve"
       style="font-size:13.03082466px;font-style:normal;font-weight:normal;fill:#b3b3b3;fill-opacity:1;stroke:none;stroke-width:1px;stroke-linecap:butt;stroke-linejoin:miter;stroke-opacity:1;display:inline;font-family:Bitstream Vera Sans"
       x="85.455162"
       y="173.61119"
       id="text3403"
       transform="scale(0.9997032,1.0002969)"><tspan
         sodipodi:role="line"
         id="tspan3405"
         x="85.455162"
         y="173.61119"
         style="font-size:15.92656422px;fill:#b3b3b3">5</tspan></text>
    <text
       id="text3618"
       y="173.61119"
       x="114.41254"
       style="font-size:13.03082466px;font-style:normal;font-weight:normal;fill:#b3b3b3;fill-opacity:1;stroke:none;stroke-width:1px;stroke-linecap:butt;stroke-linejoin:miter;stroke-opacity:1;display:inline;font-family:Bitstream Vera Sans"
       xml:space="preserve"
       transform="scale(0.9997032,1.0002969)"><tspan
         style="font-size:15.92656422px;fill:#b3b3b3"
         y="173.61119"
         x="114.41254"
         id="tspan3620"
         sodipodi:role="line">MINI-MI</tspan></text>
    <path
       style="fill:none;fill-opacity:1;stroke:none;stroke-width:1.00000012;stroke-linecap:round;stroke-linejoin:round;stroke-miterlimit:4;stroke-dasharray:none;display:inline"
       d="M 373.2519,182.69906 C 320.24472,182.69904 276.33542,222.0822 269.24672,273.18288 C 268.92129,273.1626 268.58917,273.14627 268.25869,273.14627 C 259.63615,273.14627 252.63225,280.15435 252.63225,288.78228 C 252.63225,297.41023 259.63615,304.41828 268.25869,304.4183 L 268.29523,351.03339 C 258.64613,350.16819 247.553,349.36255 236.12761,349.42218 C 221.4023,349.49902 206.12248,350.96031 192.65183,355.39098 C 180.8372,359.22209 169.81315,364.60234 166.99815,376.59297 C 166.91757,376.93594 166.80891,377.26443 166.74203,377.61828 C 166.73068,377.6761 166.71625,377.74326 166.70538,377.80137 C 166.64002,378.16132 166.61005,378.52846 166.559,378.89992 C 166.55161,378.9571 166.52936,379.02551 166.52247,379.08301 C 166.5159,379.13268 166.49201,379.17957 166.4858,379.22949 C 166.44306,379.60494 166.43567,379.97359 166.41261,380.36466 C 166.40653,380.4389 166.38159,380.50956 166.37607,380.58437 C 166.37607,380.7776 166.37151,380.98053 166.37607,381.17026 C 166.37116,381.36805 166.37607,381.55444 166.37607,381.75614 C 166.38159,381.83089 166.40641,381.9015 166.41261,381.97586 C 166.44881,382.41431 166.46719,382.83426 166.52247,383.2575 C 166.53031,383.32305 166.55056,383.41211 166.559,383.47722 C 166.60924,383.84039 166.64144,384.18701 166.70538,384.53914 C 166.71625,384.59735 166.73068,384.66443 166.74203,384.72222 C 166.8055,385.05799 166.88585,385.34835 166.96161,385.67432 C 166.96594,385.69153 166.99369,385.73038 166.99815,385.74753 C 169.81315,397.73815 180.8372,403.11845 192.65183,406.94954 C 216.58699,414.8222 246.24303,413.28888 268.33189,411.30713 L 268.36842,512.33702 L 268.36842,563.74911 C 268.36842,585.03695 285.66588,602.30818 306.94036,602.30818 C 328.21498,602.30821 345.43912,585.03695 345.43912,563.74911 L 345.43912,512.33702 L 401.02814,512.33702 L 401.02814,563.74911 C 401.02814,585.03695 418.2524,602.30818 439.5269,602.30818 C 460.80127,602.30821 478.09883,585.03695 478.09883,563.74911 L 478.09883,512.33702 L 478.13537,411.30713 C 500.21684,413.28579 529.83225,414.81392 553.74222,406.94954 C 565.55674,403.11845 576.61757,397.73815 579.43246,385.74753 C 579.43691,385.73038 579.42813,385.69153 579.43246,385.67432 C 579.50822,385.34835 579.58856,385.05799 579.65202,384.72222 C 579.66339,384.66443 579.6778,384.59735 579.68868,384.53914 C 579.75262,384.18701 579.82136,383.84039 579.87161,383.47722 C 579.88003,383.41211 579.86376,383.32305 579.87161,383.2575 C 579.92688,382.83426 579.9818,382.41431 580.01799,381.97586 C 580.0242,381.9015 580.01249,381.83089 580.01799,381.75614 C 580.01799,381.55444 580.0229,381.36805 580.01799,381.17026 C 580.02256,380.98053 580.01799,380.7776 580.01799,380.58437 C 580.01249,380.50956 580.0242,380.4389 580.01799,380.36466 C 579.99492,379.97359 579.95099,379.60494 579.90826,379.22949 C 579.90205,379.17957 579.87815,379.13268 579.87161,379.08301 C 579.86469,379.02551 579.87899,378.9571 579.87161,378.89992 C 579.82054,378.52846 579.75404,378.16132 579.68868,377.80137 C 579.6778,377.74326 579.66339,377.6761 579.65202,377.61828 C 579.58517,377.26443 579.51302,376.93594 579.43246,376.59297 C 576.61757,364.60234 565.55674,359.22209 553.74222,355.39098 C 540.27158,350.96031 524.99177,349.49902 510.26646,349.42218 C 498.86882,349.36272 487.80472,350.17071 478.17201,351.03339 L 478.20856,304.4183 C 486.81435,304.39852 493.79836,297.39805 493.79836,288.78228 C 493.79836,280.15434 486.79457,273.14626 478.17201,273.14627 C 477.85361,273.14627 477.53415,273.16407 477.22052,273.18288 C 470.13524,222.0822 426.25909,182.69906 373.2519,182.69906 z"
       id="path8655" />
    <path
       id="path9901"
       d="M 373.22144,182.10003 L 370.50831,182.12452 L 370.48395,182.12452 L 367.79531,182.22236 L 367.77084,182.22236 L 367.08647,182.27127 L 366.91549,182.29568 C 364.82913,182.41887 362.75927,182.59091 360.70721,182.83383 C 360.69105,182.83572 360.67453,182.83185 360.65825,182.83383 L 359.94941,182.93167 C 359.88395,182.93987 359.81942,182.94769 359.75397,182.95608 C 358.87812,183.0679 358.00768,183.18975 357.13863,183.32296 C 356.58425,183.40788 356.02823,183.49835 355.47666,183.59195 L 354.54777,183.73869 L 354.52328,183.73869 L 354.40114,183.7631 L 354.37667,183.78761 C 352.31032,184.16085 350.26459,184.5919 348.24182,185.08388 C 348.18385,185.09788 348.12857,185.11854 348.07073,185.1327 L 346.84859,185.42619 L 346.82412,185.42619 L 344.50213,186.06214 L 344.30658,186.11098 L 342.18016,186.74694 L 342.15568,186.77137 C 340.17939,187.38041 338.21481,188.03216 336.2897,188.75232 L 336.19191,188.77683 L 335.53202,189.04581 L 334.50547,189.43712 L 334.481,189.43712 L 333.35665,189.90186 L 332.11018,190.41542 L 331.45015,190.70889 C 331.1759,190.82754 330.89226,190.93054 330.61916,191.05137 L 330.37465,191.17361 C 328.46242,192.02558 326.57911,192.92796 324.72859,193.88839 L 324.67977,193.91281 L 322.87105,194.86666 L 320.79346,196.04061 L 320.64685,196.11394 L 320.62237,196.11394 L 319.18032,196.9699 L 319.15585,197.01888 C 317.40862,198.06455 315.67871,199.15405 313.9986,200.29605 L 313.85198,200.36947 L 312.06774,201.61679 L 310.01464,203.10862 L 309.20801,203.74452 L 308.76803,204.0625 L 308.74355,204.11133 C 307.1631,205.3338 305.6318,206.61839 304.12407,207.92662 C 304.1107,207.93828 304.08857,207.93954 304.07512,207.95111 L 303.87966,208.07344 L 302.19321,209.56528 L 302.19321,209.5897 L 300.33555,211.30177 L 299.26017,212.35339 L 299.23569,212.40229 C 297.81272,213.80139 296.44751,215.25395 295.105,216.73114 C 295.08579,216.75235 295.0509,216.75892 295.03169,216.78014 L 294.88495,216.90239 L 293.34524,218.63888 L 293.32075,218.66328 L 291.7075,220.57092 L 291.68314,220.59542 L 290.80321,221.69596 L 290.77874,221.76936 C 289.53294,223.32483 288.34396,224.91285 287.18579,226.53844 L 286.99033,226.73409 L 285.62147,228.71515 L 285.62147,228.73956 L 284.22826,230.84287 L 284.20391,230.86736 L 283.51954,231.96789 L 283.51954,232.06572 C 282.47296,233.74835 281.46619,235.45783 280.51317,237.20168 C 280.50252,237.22101 280.47477,237.23128 280.46423,237.25061 L 280.34208,237.42185 L 280.31761,237.42185 L 280.31761,237.44625 L 279.11998,239.69629 L 279.11998,239.72072 L 277.99563,241.99525 L 277.97114,242.01974 L 277.50682,243.04685 L 277.50682,243.09586 C 276.66132,244.90341 275.88045,246.73724 275.13588,248.59864 L 274.98926,248.81872 L 274.89148,249.06336 L 274.89148,249.08777 L 273.98719,251.48457 L 273.96271,251.48457 L 273.10724,253.90578 L 273.10724,253.93026 L 272.83836,254.7618 L 272.86284,254.85964 C 272.2375,256.76533 271.64577,258.70436 271.12745,260.6559 L 271.05414,260.80272 L 270.88305,261.4141 L 270.27198,263.95763 L 269.70976,266.52558 L 269.61209,266.96589 L 269.66091,267.08814 C 269.30386,268.87847 268.97304,270.67153 268.70768,272.49308 C 268.58226,272.48784 268.47265,272.46868 268.34101,272.46868 C 259.30251,272.46868 251.96497,279.83661 251.96497,288.87936 C 251.96497,297.65422 258.89169,304.77515 267.55898,305.19214 L 267.55898,310.76834 L 267.55898,310.79283 L 267.55898,311.6977 L 267.58334,329.5758 L 267.58334,335.83681 L 267.58334,342.09779 L 267.58334,348.35878 L 267.58334,350.19302 C 258.12174,349.35639 247.3601,348.61861 236.22434,348.67667 C 221.46366,348.75369 206.12282,350.22777 192.54656,354.69311 C 186.61067,356.61796 180.83977,358.92436 176.14603,362.3237 C 171.45228,365.72302 167.84587,370.2494 166.39375,376.43541 C 166.31962,376.75089 166.22535,377.08539 166.14923,377.48702 C 166.12348,377.61874 166.12276,377.66961 166.12488,377.65818 C 166.05636,378.03493 165.98107,378.43134 165.92931,378.8077 C 165.92519,378.83971 165.91526,378.89262 165.90483,378.97895 C 165.90589,378.97071 165.89405,379.01408 165.88047,379.12561 C 165.83585,379.51669 165.80635,379.92074 165.78269,380.32403 C 165.78047,380.35088 165.76758,380.41788 165.75821,380.54418 C 165.75775,380.56048 165.75775,380.57682 165.75821,380.59303 C 165.75821,380.75887 165.75494,380.93902 165.75821,381.13116 C 165.75844,381.14861 165.75775,381.1623 165.75821,381.18 C 165.75457,381.38113 165.75821,381.56887 165.75821,381.74255 C 165.75775,381.75882 165.75775,381.77518 165.75821,381.79145 C 165.76758,381.9173 165.78034,382.00816 165.78269,382.03603 C 165.8183,382.46811 165.84557,382.90255 165.90483,383.3567 C 165.91302,383.4244 165.92064,383.48545 165.92931,383.55236 C 165.98083,383.92495 166.05871,384.3134 166.12488,384.67738 C 166.12288,384.66682 166.12382,384.71808 166.14923,384.84863 C 166.21856,385.21497 166.29608,385.53648 166.36928,385.85131 C 166.36916,385.85947 166.36916,385.86759 166.36928,385.87575 C 166.41295,386.04776 166.46132,386.11115 166.46706,386.12039 C 167.95103,392.19753 171.50592,396.65138 176.14603,400.01196 C 180.83977,403.4112 186.61067,405.71767 192.54656,407.64254 C 216.37573,415.48021 245.6007,414.06428 267.60781,412.11814 L 267.60781,417.22968 L 267.60781,423.46618 L 267.60781,423.49069 L 267.60781,425.10476 L 267.63228,442.27367 L 267.63228,448.53464 L 267.63228,454.79564 L 267.63228,461.05661 L 267.63228,462.15715 L 267.63228,467.3176 L 267.63228,473.55411 L 267.63228,473.57861 L 267.63228,479.83959 L 267.63228,479.86401 L 267.65665,492.36158 L 267.65665,498.62258 L 267.65665,504.88356 L 267.65665,511.14457 L 267.65665,512.22067 L 267.65665,563.60479 C 267.65665,585.29646 285.28151,602.90721 306.95932,602.90721 C 328.63713,602.90707 346.23755,585.29591 346.23755,563.60479 L 346.23755,513.0033 L 348.73062,513.0033 L 354.98773,513.0033 L 361.24496,513.0033 L 367.50209,513.0033 L 373.7592,513.0033 L 380.01631,513.0033 L 386.27343,513.0033 L 392.53067,513.0033 L 398.78777,513.0033 L 400.18088,513.0033 L 400.18088,563.60479 C 400.18098,585.29582 417.7814,602.90721 439.4592,602.90721 C 461.13689,602.90707 478.76177,585.29646 478.76177,563.60479 L 478.76177,512.22067 L 478.76177,510.06844 L 478.76177,503.80747 L 478.76177,497.54648 L 478.76177,491.28546 L 478.78625,481.13578 L 478.78625,478.739 L 478.78625,472.52691 L 478.78625,466.24149 L 478.78625,459.98053 L 478.78625,453.71953 L 478.78625,447.45855 L 478.78625,441.19755 L 478.81072,422.43898 L 478.81072,416.15358 L 478.81072,412.11814 C 500.81512,414.06318 530.02686,415.47739 553.8475,407.64254 C 559.78351,405.71767 565.55427,403.41113 570.24802,400.01196 C 574.8825,396.65552 578.43962,392.1865 579.92699,386.12039 C 579.92147,386.12922 579.96001,386.05471 580.00028,385.90023 C 580.00604,385.88238 580.01949,385.89663 580.02477,385.87575 C 580.02488,385.86759 580.02488,385.85947 580.02477,385.85131 C 580.09797,385.53639 580.17549,385.21497 580.24481,384.84863 C 580.27046,384.7173 580.27128,384.66641 580.26917,384.67738 C 580.33534,384.3133 580.41321,383.92488 580.46474,383.55236 C 580.47351,383.48444 580.48102,383.42401 580.48921,383.3567 C 580.54846,382.90255 580.57577,382.46818 580.61135,382.03603 C 580.61359,382.00895 580.62647,381.91746 580.63582,381.79145 C 580.63628,381.77518 580.63628,381.75882 580.63582,381.74255 C 580.63582,381.56887 580.63946,381.3812 580.63582,381.18 C 580.63548,381.16253 580.63628,381.14885 580.63582,381.13116 C 580.63911,380.9391 580.63582,380.75893 580.63582,380.59303 C 580.63628,380.57675 580.63628,380.56039 580.63582,380.54418 C 580.62647,380.41803 580.61359,380.32661 580.61135,380.29952 C 580.58759,379.89649 580.55819,379.51683 580.51356,379.12561 C 580.49988,379.01509 580.48816,378.97087 580.48921,378.97895 C 580.47867,378.89238 580.46872,378.83931 580.46474,378.8077 C 580.41298,378.43119 580.33755,378.03488 580.26917,377.65818 C 580.27128,377.66937 580.27046,377.61835 580.24481,377.48702 C 580.16869,377.08532 580.07443,376.7508 580.00028,376.43541 C 578.54805,370.2494 574.94164,365.72302 570.24802,362.3237 C 565.55427,358.92436 559.78351,356.61796 553.8475,354.69311 C 540.27122,350.22777 524.93052,348.75369 510.16971,348.67667 C 499.04344,348.61861 488.29083,349.35726 478.83506,350.19302 L 478.83506,347.28267 L 478.83506,341.02169 L 478.83506,334.76068 L 478.83506,328.4997 L 478.85954,309.74115 L 478.85954,305.19214 C 487.51676,304.76279 494.45356,297.64725 494.45356,288.87936 C 494.45356,279.83527 487.09142,272.46868 478.05291,272.46868 C 477.94939,272.46868 477.84025,272.46742 477.73522,272.46868 C 477.71987,272.36279 477.70207,272.25651 477.68638,272.15077 C 477.68404,272.13481 477.68872,272.11775 477.68638,272.1018 L 477.63742,271.73496 L 477.63742,271.71046 L 477.36855,270.07187 L 477.22192,269.1181 L 477.19757,269.1181 L 476.92858,267.72401 L 476.70864,266.52558 L 476.56203,265.88978 L 476.53756,265.86528 C 476.11071,263.84893 475.63548,261.84564 475.09552,259.87328 L 475.09552,259.77546 L 474.85111,258.895 L 474.85111,258.87058 L 474.11779,256.40047 L 474.09331,256.37598 L 474.02002,256.18032 L 473.31116,253.93026 L 473.31116,253.90578 L 473.23797,253.73461 L 473.2135,253.71011 C 472.54775,251.7585 471.8129,249.83693 471.03813,247.93826 C 471.02558,247.90752 471.0263,247.87127 471.01365,247.84045 L 470.79372,247.32687 L 470.54932,246.691 L 470.54932,246.66649 L 469.52275,244.34312 L 469.52275,244.31863 L 468.91171,243.02244 L 468.47173,242.06859 L 468.42279,242.04416 C 467.53137,240.19162 466.60634,238.38101 465.612,236.59021 L 465.56316,236.46797 L 464.85432,235.22064 L 464.85432,235.19622 L 463.55889,233.01955 L 463.55889,232.99508 L 462.33676,231.06301 L 462.31228,231.03851 C 461.23151,229.34431 460.08774,227.70056 458.91491,226.07378 L 458.89043,226.00039 L 458.79265,225.82914 L 458.23055,225.09551 L 457.86388,224.58187 L 456.81297,223.23679 L 456.32405,222.5764 L 456.32405,222.55199 L 455.39526,221.42689 C 455.23846,221.23272 455.08905,221.033 454.93082,220.83992 L 454.90648,220.81551 C 453.60636,219.22975 452.26185,217.69995 450.87344,216.19316 C 450.84615,216.16342 450.82754,216.12493 450.80026,216.09534 L 449.67592,214.89691 L 449.67592,214.87241 L 447.91605,213.08709 L 447.89157,213.06267 L 447.67164,212.86703 L 446.40067,211.59525 L 446.35173,211.57076 C 444.87536,210.15171 443.33765,208.76958 441.78106,207.43749 L 441.70776,207.33966 L 440.82793,206.63044 L 440.41234,206.26354 L 440.41234,206.23913 L 439.04359,205.16302 L 438.43264,204.67387 L 438.43264,204.64947 L 437.23489,203.74452 C 437.0879,203.63214 436.94258,203.51372 436.7949,203.40211 L 436.77054,203.40211 C 435.12462,202.15822 433.42996,200.9547 431.71095,199.8069 C 431.69234,199.79445 431.68087,199.77049 431.66213,199.75806 L 431.56434,199.70905 C 430.92132,199.28122 430.28635,198.8514 429.63349,198.4373 L 427.99587,197.41019 L 427.97141,197.41019 L 427.6537,197.21454 C 427.58191,197.17118 427.50555,197.13542 427.43365,197.09222 L 426.30943,196.40742 L 426.26048,196.40742 C 424.46595,195.36082 422.64505,194.3654 420.78552,193.42367 C 420.77568,193.41873 420.77088,193.40417 420.76105,193.39925 L 419.49009,192.76328 C 419.32614,192.68314 419.1657,192.59816 419.00116,192.51879 L 417.38802,191.7606 C 417.35523,191.7454 417.32314,191.7268 417.29025,191.71169 L 416.70365,191.44268 L 416.67929,191.44268 L 415.23713,190.80672 C 415.1801,190.78192 415.12318,190.75813 415.06604,190.73338 C 413.17044,189.91257 411.24883,189.14521 409.29773,188.43444 L 409.20005,188.38552 L 408.68666,188.21437 L 407.098,187.65181 L 407.07352,187.65181 L 406.46246,187.45615 L 404.62928,186.84477 L 404.60491,186.84477 L 404.2139,186.72245 C 403.88119,186.62024 403.5458,186.52797 403.2117,186.42898 C 401.20333,185.8337 399.18206,185.29165 397.12568,184.81481 C 397.11035,184.81119 397.09218,184.81841 397.07685,184.81481 L 397.05238,184.79039 L 394.99926,184.35008 C 394.82864,184.31423 394.65685,184.28732 394.48598,184.25226 L 392.6528,183.88544 L 391.91948,183.73869 L 391.89512,183.73869 L 390.94187,183.59195 C 388.90598,183.24705 386.85603,182.96224 384.78242,182.73599 L 384.70923,182.7115 L 384.02486,182.63815 L 384.00028,182.63815 L 383.0715,182.56476 L 381.36058,182.39351 L 381.33622,182.39351 L 380.74963,182.34468 L 380.62737,182.34468 C 380.54609,182.33897 380.46436,182.35008 380.38297,182.34468 L 378.67194,182.22236 L 378.64757,182.22236 L 378.40317,182.22236 C 378.39497,182.22198 378.38689,182.22275 378.37869,182.22236 C 376.67363,182.14036 374.94677,182.10003 373.22144,182.10003 z M 373.22144,183.66527 C 374.94606,183.66527 376.65032,183.70449 378.35434,183.78761 C 378.94677,183.8165 379.54859,183.84662 380.13845,183.88544 L 381.21395,183.95876 C 381.39313,183.97247 381.57277,183.99319 381.75171,184.00776 L 383.80481,184.20342 L 383.85365,184.20342 C 383.86186,184.20419 383.87005,184.20256 383.87813,184.20342 L 384.53802,184.27674 C 386.61127,184.50119 388.66262,184.78812 390.69747,185.1327 C 392.72002,185.47526 394.7291,185.87346 396.71019,186.33114 C 398.75814,186.80423 400.77202,187.32867 402.77174,187.92087 C 402.95219,187.97426 403.1295,188.03766 403.30948,188.09204 L 403.89607,188.26319 L 404.16495,188.36102 C 404.44379,188.4479 404.71827,188.54096 404.99606,188.6301 C 405.36975,188.75007 405.74847,188.84844 406.12028,188.97249 L 406.58473,189.14364 C 407.16556,189.34055 407.74385,189.54827 408.32012,189.75512 L 408.68666,189.87744 C 410.62161,190.57992 412.52671,191.33969 414.40614,192.15189 L 414.43061,192.17631 L 415.16382,192.4943 C 415.73765,192.74779 416.33089,192.989 416.89922,193.25242 L 418.3168,193.93721 C 418.54691,194.0482 418.7721,194.16707 419.00116,194.27969 C 421.22045,195.37021 423.40038,196.53639 425.52728,197.777 C 426.04851,198.08115 426.55149,198.36906 427.06699,198.68197 L 427.16477,198.7553 C 427.52276,198.97309 427.88522,199.19364 428.24028,199.41557 L 429.29131,200.07596 C 429.58748,200.26607 429.87708,200.46994 430.17125,200.66294 L 430.78219,201.05424 C 430.78792,201.05801 430.80092,201.0505 430.80667,201.05424 C 432.52602,202.2 434.19643,203.40611 435.84177,204.64947 C 435.91191,204.70253 435.99155,204.7429 436.06169,204.79613 L 436.52614,205.16302 C 436.59044,205.21249 436.65742,205.26014 436.72161,205.30977 L 437.45492,205.87224 L 437.47929,205.89674 C 437.65658,206.03618 437.84078,206.17189 438.01704,206.31254 L 439.41025,207.46198 L 439.53239,207.55981 C 439.72058,207.71571 439.90759,207.8673 440.09461,208.02445 L 440.70568,208.53809 C 442.27748,209.88005 443.81169,211.28839 445.3007,212.72019 L 446.7917,214.18763 L 448.33153,215.75288 C 448.3635,215.78619 448.39746,215.81735 448.42932,215.8507 L 448.55157,215.97302 L 449.65144,217.14695 C 451.31576,218.94895 452.90676,220.80675 454.44203,222.72315 C 454.65517,222.98909 454.86701,223.26213 455.07757,223.53027 C 455.22079,223.7127 455.35101,223.90929 455.49306,224.09273 L 455.93303,224.63078 C 456.16268,224.9314 456.39093,225.23254 456.6174,225.53566 C 456.82338,225.81138 457.02516,226.08944 457.22846,226.36727 L 457.52169,226.7586 C 458.73597,228.43442 459.90212,230.14562 461.01696,231.89447 C 461.04847,231.94401 461.08327,231.99175 461.11475,232.04129 L 461.26136,232.28578 C 461.58412,232.79699 461.90066,233.30945 462.2145,233.82661 C 462.64627,234.53763 463.07055,235.25678 463.48557,235.97884 L 463.51005,236.00324 L 464.19441,237.22617 C 465.82793,240.16093 467.31765,243.175 468.66719,246.27519 C 468.81487,246.61432 468.96313,246.96147 469.10715,247.30246 C 469.26419,247.67381 469.41889,248.05387 469.57159,248.42741 C 470.38033,250.40502 471.13181,252.40775 471.82027,254.4439 C 471.88023,254.62101 471.93248,254.80438 471.99136,254.98188 C 472.19643,255.59937 472.40873,256.21812 472.60243,256.8406 C 472.64071,256.96371 472.68686,257.08423 472.72457,257.20751 L 472.94462,257.91672 C 473.08304,258.37925 473.20354,258.84569 473.33564,259.31079 C 473.3498,259.3605 473.37053,259.40785 473.38458,259.45753 L 473.58015,260.16677 C 474.12751,262.15885 474.61631,264.16988 475.04668,266.20769 C 475.0551,266.24822 475.06261,266.28947 475.07104,266.32992 C 475.10523,266.49288 475.13544,266.65596 475.16881,266.81907 C 475.29412,267.43091 475.42083,268.03777 475.53548,268.65338 C 475.58081,268.89709 475.61395,269.14283 475.65762,269.38709 C 475.75365,269.92453 475.83879,270.46101 475.92649,271.00125 C 476.05414,271.78708 476.1832,272.58199 476.29316,273.37355 C 476.34422,273.78661 476.70935,274.08753 477.12415,274.05834 C 477.42171,274.03993 477.73216,274.03394 478.05291,274.03394 C 486.24358,274.03394 492.88926,280.68357 492.88926,288.87936 C 492.88926,296.80288 486.67476,303.23152 478.85954,303.65137 L 478.85954,303.45573 L 478.54185,302.84427 L 477.85736,302.72193 L 477.34419,303.18666 L 477.29523,303.45573 L 477.29523,304.48284 L 477.29523,309.71672 L 477.29523,315.87987 L 477.27076,315.97771 L 477.27076,322.23871 L 477.29523,322.26312 L 477.27076,328.4263 L 477.27076,328.4997 L 477.27076,334.76068 L 477.27076,334.78511 L 477.27076,340.99718 L 477.27076,341.02169 L 477.27076,347.28267 L 477.27076,351.04898 C 477.26984,351.26991 477.35226,351.48684 477.51516,351.63594 C 477.67816,351.78503 477.90653,351.85232 478.12634,351.83159 C 487.74992,350.96915 498.80277,350.18261 510.16971,350.24192 C 524.83238,350.31846 540.01851,351.77281 553.35857,356.16052 C 559.22632,358.06316 564.87155,360.35664 569.3436,363.59546 C 573.81578,366.83426 577.12486,370.98445 578.48494,376.77774 C 578.57171,377.14751 578.67161,377.4752 578.72934,377.78051 C 578.72618,377.76471 578.73004,377.82442 578.75381,377.95167 C 578.81599,378.29414 578.85019,378.63764 578.90044,379.00337 C 578.91109,379.086 578.92151,379.14617 578.92489,379.1746 C 578.93884,379.28159 578.95067,379.33214 578.94925,379.32126 C 578.99025,379.68057 579.02479,380.04361 579.04705,380.42186 C 579.04705,380.43 579.04705,380.43814 579.04705,380.44637 C 579.05478,380.53785 579.06696,380.55852 579.07152,380.59303 C 579.07152,380.61173 579.07152,380.6237 579.07152,380.64201 C 579.07222,380.82358 579.07516,380.9809 579.07152,381.13116 C 579.07106,381.14745 579.07106,381.16379 579.07152,381.18 C 579.0755,381.3373 579.07222,381.50314 579.07152,381.69362 C 579.07106,381.69935 579.07305,381.73119 579.07152,381.74255 C 579.06696,381.7772 579.05478,381.79763 579.04705,381.8893 C 579.01052,382.33335 578.97608,382.7695 578.92489,383.16106 C 578.91719,383.22475 578.9085,383.29458 578.90044,383.3567 C 578.85148,383.70983 578.81553,384.04438 578.75381,384.3839 C 578.73004,384.51115 578.7263,384.57071 578.72934,384.55514 C 578.67769,384.82834 578.60356,385.11479 578.53377,385.41108 C 578.5258,385.44513 578.51738,385.47424 578.50929,385.50892 C 578.50369,385.5266 578.49032,385.51267 578.48494,385.53342 C 578.48482,385.54156 578.48482,385.54969 578.48494,385.55782 C 577.12486,391.35121 573.81578,395.50123 569.3436,398.7402 C 564.87155,401.979 559.22632,404.2724 553.35857,406.17512 C 529.76303,413.93601 500.37996,412.49246 478.37074,410.5284 L 478.76177,410.16156 L 478.81072,409.89259 L 478.81072,403.63159 L 478.49288,403.02013 L 477.80851,402.8978 L 477.29523,403.36253 L 477.24639,403.63159 L 477.24639,409.89259 L 477.56411,410.5284 L 477.75969,410.5529 C 477.66495,410.58755 477.56681,410.63005 477.49079,410.69965 C 477.3279,410.84873 477.24548,411.06566 477.24639,411.28659 L 477.24639,416.15358 L 477.24639,422.41457 L 477.24639,428.57774 L 477.22192,428.67557 L 477.22192,434.93655 L 477.24639,434.96096 L 477.22192,441.14855 L 477.22192,441.19755 L 477.22192,447.45855 L 477.22192,447.48296 L 477.22192,453.69503 L 477.22192,453.71953 L 477.22192,459.98053 L 477.22192,466.24149 L 477.22192,472.50248 L 477.22192,478.7635 L 477.22192,481.18469 L 477.19757,485.02447 L 477.22192,485.04889 L 477.19757,491.23648 L 477.19757,491.28546 L 477.19757,497.54648 L 477.19757,497.57088 L 477.19757,503.78295 L 477.19757,503.80747 L 477.19757,510.06844 L 477.19757,512.22067 L 477.19757,563.60479 C 477.19757,584.44887 460.29091,601.34182 439.4592,601.34196 C 418.62736,601.34196 401.7453,584.44935 401.74518,563.60479 L 401.74518,512.22067 C 401.74518,511.78842 401.39502,511.43805 400.96303,511.43805 L 398.78777,511.43805 L 392.53067,511.43805 L 386.27343,511.43805 L 380.01631,511.43805 L 373.7592,511.43805 L 367.50209,511.43805 L 361.24496,511.43805 L 354.98773,511.43805 L 348.73062,511.43805 L 345.45537,511.43805 L 342.4735,511.43805 L 341.83797,511.75593 L 341.7157,512.44074 L 342.18016,512.9543 L 342.4735,513.0033 L 344.67322,513.0033 L 344.67322,563.60479 C 344.67322,584.44943 327.79117,601.34182 306.95932,601.34196 C 286.12738,601.34196 269.22084,584.44873 269.22096,563.60479 L 269.22096,513.0033 L 273.645,513.0033 L 274.25607,512.6853 L 274.37819,512.0005 L 273.91387,511.48687 L 273.645,511.43805 L 269.22096,511.43805 L 269.22096,511.14457 L 269.22096,504.90799 L 269.22096,498.59807 L 269.22096,492.41043 L 269.22096,492.36158 L 269.22096,486.10058 L 269.19648,486.0761 L 269.19648,479.83959 L 269.19648,473.57861 L 269.19648,467.3176 L 269.19648,461.05661 L 269.19648,454.82006 L 269.19648,448.51014 L 269.19648,442.32248 L 269.19648,442.27367 L 269.19648,436.01266 L 269.17211,435.98815 L 269.17211,429.825 L 269.19648,429.75166 L 269.17211,425.22708 L 269.17211,423.49069 L 269.17211,417.22968 L 269.17211,411.28659 L 269.17211,410.9687 L 268.85429,410.35723 L 268.16993,410.23491 L 267.82774,410.5529 C 245.83994,412.50803 216.56228,413.91331 193.03547,406.17512 C 187.16774,404.2724 181.52249,401.97893 177.05045,398.7402 C 172.57826,395.5013 169.26917,391.35128 167.90911,385.55782 C 167.90922,385.54969 167.90922,385.54156 167.90911,385.53342 C 167.89986,385.49827 167.89447,385.51112 167.88463,385.48441 C 167.88029,385.46752 167.88909,385.47456 167.88463,385.46 C 167.80862,385.13428 167.72081,384.85198 167.66471,384.55514 C 167.66762,384.57 167.66401,384.51077 167.64023,384.3839 C 167.5785,384.04433 167.54245,383.70976 167.49361,383.3567 C 167.48541,383.29355 167.47675,383.22435 167.46914,383.16106 C 167.41797,382.7695 167.38353,382.33335 167.34687,381.8893 C 167.33926,381.79826 167.32709,381.7772 167.32252,381.74255 C 167.32252,381.72392 167.32252,381.71178 167.32252,381.69362 C 167.32183,381.50314 167.31853,381.33739 167.32252,381.18 C 167.32299,381.16372 167.32299,381.14736 167.32252,381.13116 C 167.3189,380.9809 167.32193,380.8235 167.32252,380.64201 C 167.32252,380.62377 167.32252,380.61181 167.32252,380.59303 C 167.32709,380.55852 167.33926,380.53785 167.34687,380.44637 C 167.3471,380.43822 167.3471,380.43 167.34687,380.42186 C 167.36913,380.04378 167.40378,379.68063 167.44466,379.32126 C 167.44326,379.33323 167.45509,379.28183 167.46914,379.1746 C 167.47266,379.14588 167.48308,379.08561 167.49361,379.00337 C 167.54397,378.63748 167.57804,378.29423 167.64023,377.95167 C 167.66413,377.82412 167.66786,377.76431 167.66471,377.78051 C 167.72255,377.47513 167.82221,377.1476 167.90911,376.77774 C 169.26917,370.98436 172.57826,366.83426 177.05045,363.59546 C 181.52249,360.35664 187.16774,358.06316 193.03547,356.16052 C 206.37554,351.77281 221.56167,350.31846 236.22434,350.24192 C 247.33129,350.18402 258.11669,350.94385 267.58334,351.78277 L 267.58334,354.61976 L 267.90117,355.25557 L 268.58553,355.3779 L 269.09881,354.88876 L 269.14764,354.61976 L 269.14764,351.04898 L 269.14764,348.35878 L 269.14764,342.1222 L 269.14764,335.8123 L 269.14764,329.64913 L 269.14764,329.5758 L 269.14764,323.31482 L 269.12317,323.29032 L 269.12317,317.15164 L 269.14764,317.05383 L 269.12317,311.77111 L 269.12317,310.79283 L 269.12317,304.53184 L 269.12317,304.48284 L 269.12317,298.27085 L 268.80545,297.65937 L 268.12108,297.53704 L 267.60781,298.00178 L 267.55898,298.27085 L 267.55898,303.65137 C 259.73451,303.24263 253.52927,296.81189 253.52927,288.87936 C 253.52927,280.68216 260.15035,274.03394 268.34101,274.03394 C 268.37909,274.03394 268.42463,274.03314 268.46327,274.03394 L 268.41445,274.35182 L 268.41445,274.37633 L 268.09661,277.01768 L 267.90117,279.43888 L 268.14556,280.09925 L 268.82993,280.27049 L 269.36757,279.83019 L 269.441,279.58569 L 269.66091,277.18883 L 269.66091,277.16442 L 269.95428,274.57198 L 269.95428,274.54748 L 270.1009,273.52037 C 270.11308,273.47921 270.14433,273.44194 270.14972,273.39802 C 272.23633,258.35459 277.53329,244.34405 285.32824,232.06572 L 285.54818,231.69882 C 285.88427,231.17421 286.22961,230.65175 286.57473,230.13358 C 286.68819,229.96327 286.8025,229.78962 286.9169,229.62001 C 287.23018,229.15583 287.54976,228.68477 287.87016,228.226 C 289.62021,225.71989 291.48499,223.3005 293.44291,220.96222 C 293.79914,220.5369 294.15561,220.11005 294.51841,219.69047 C 296.38039,217.53733 298.33022,215.4719 300.36004,213.4784 L 301.23986,212.62236 C 301.29817,212.56648 301.35262,212.50693 301.41106,212.45122 L 302.90193,211.05712 C 303.01659,210.95185 303.12913,210.84401 303.24413,210.73923 L 304.61287,209.54087 C 304.72107,209.44578 304.82215,209.34191 304.93069,209.24739 C 306.48458,207.89289 308.08834,206.57134 309.72129,205.30977 L 309.91685,205.16302 C 310.26091,204.89842 310.59584,204.64078 310.94341,204.3804 L 310.96777,204.35599 L 311.40773,204.038 C 311.66011,203.85111 311.91142,203.66015 312.16553,203.47553 L 312.97204,202.88855 C 313.44926,202.54867 313.93114,202.21778 314.4141,201.88579 L 314.75628,201.66562 C 316.4692,200.49843 318.20295,199.38061 319.98695,198.31506 L 321.33122,197.53244 C 321.35664,197.5178 321.37911,197.49816 321.40453,197.48353 L 321.4289,197.45903 C 322.1553,197.04095 322.89155,196.63712 323.62873,196.23625 L 325.38849,195.30681 C 325.39832,195.30181 325.40324,195.28749 325.41297,195.28239 C 327.45004,194.22507 329.50842,193.2468 331.62124,192.32313 C 331.98346,192.16482 332.35692,192.01267 332.7211,191.85843 L 333.23438,191.63833 C 333.44564,191.55014 333.65784,191.45605 333.86993,191.36929 C 334.26738,191.20657 334.66777,191.06248 335.06757,190.90455 C 335.4744,190.74397 335.88041,190.59558 336.2897,190.4399 L 336.75413,190.24425 C 338.65525,189.53176 340.59476,188.86565 342.54681,188.26319 C 342.57139,188.25568 342.59552,188.24637 342.62011,188.23878 C 343.31724,188.02419 344.01896,187.82758 344.72218,187.62739 C 344.99726,187.54906 345.27716,187.48332 345.55316,187.40724 L 347.06863,186.99143 C 347.11853,186.97853 347.16513,186.95544 347.21526,186.94259 L 348.60836,186.60013 C 351.14758,185.98332 353.72403,185.46133 356.33201,185.03488 C 356.68061,184.97789 357.03334,184.91725 357.38315,184.86371 L 358.11636,184.76588 C 358.4343,184.71955 358.75072,184.66258 359.06959,184.61914 C 359.65747,184.53899 360.23844,184.46927 360.82936,184.39907 C 362.86501,184.15716 364.91882,183.98344 366.98869,183.86093 L 367.01316,183.86093 C 367.08707,183.85663 367.15931,183.84074 367.23321,183.83651 C 368.33025,183.77423 369.42696,183.71779 370.5329,183.68977 L 370.55727,183.68977 L 373.22144,183.66527 z M 477.36855,277.70248 L 476.90423,278.21612 L 476.87975,278.50958 L 477.00201,279.80577 L 477.00201,279.83019 L 477.14862,282.44713 L 477.14862,282.47156 L 477.24639,284.69718 L 477.58859,285.33306 L 478.27297,285.43088 L 478.76177,284.91725 L 478.81072,284.64826 L 478.71293,282.3982 L 478.71293,282.37373 L 478.54185,279.70795 L 478.54185,279.68352 L 478.44406,278.36277 L 478.05291,277.77581 L 477.36855,277.70248 z M 268.14556,285.01507 L 267.63228,285.4798 L 267.58334,285.74886 L 267.55898,287.80325 L 267.55898,287.82766 L 267.55898,292.00986 L 267.87668,292.64566 L 268.56105,292.76797 L 269.07433,292.27884 L 269.12317,292.00986 L 269.12317,287.82766 L 269.14764,285.77329 L 268.85429,285.13739 L 268.14556,285.01507 z M 477.85736,290.19995 L 477.34419,290.66468 L 477.29523,290.93375 L 477.29523,297.19474 L 477.61296,297.83054 L 478.29732,297.95285 L 478.81072,297.46372 L 478.85954,297.19474 L 478.85954,290.93375 L 478.54185,290.32229 L 477.85736,290.19995 z M 477.83299,352.80987 L 477.31971,353.2746 L 477.27076,353.54366 L 477.27076,359.80465 L 477.58859,360.44045 L 478.27297,360.56278 L 478.78625,360.07364 L 478.83506,359.80465 L 478.83506,353.54366 L 478.51737,352.93221 L 477.83299,352.80987 z M 268.14556,360.14696 L 267.63228,360.6117 L 267.58334,360.88077 L 267.58334,367.14176 L 267.90117,367.77756 L 268.58553,367.89988 L 269.09881,367.41075 L 269.14764,367.14176 L 269.14764,360.88077 L 268.82993,360.26929 L 268.14556,360.14696 z M 477.83299,365.33184 L 477.31971,365.79658 L 477.27076,366.06565 L 477.24639,372.32664 L 477.56411,372.96244 L 478.27297,373.08476 L 478.78625,372.59563 L 478.81072,372.32664 L 478.83506,366.06565 L 478.51737,365.45419 L 477.83299,365.33184 z M 268.14556,372.66895 L 267.65665,373.13369 L 267.60781,373.40274 L 267.60781,379.66375 L 267.90117,380.29952 L 268.60989,380.42186 L 269.12317,379.93272 L 269.17211,379.66375 L 269.17211,373.40274 L 268.85429,372.79128 L 268.14556,372.66895 z M 477.80851,377.85383 L 477.29523,378.31857 L 477.24639,378.58762 L 477.24639,384.84863 L 477.56411,385.48441 L 478.24848,385.60674 L 478.76177,385.11761 L 478.81072,384.84863 L 478.81072,378.58762 L 478.51737,377.97618 L 477.80851,377.85383 z M 268.16993,385.19093 L 267.65665,385.65566 L 267.60781,385.92473 L 267.60781,392.18572 L 267.92553,392.82153 L 268.60989,392.94385 L 269.12317,392.4547 L 269.17211,392.18572 L 269.17211,385.92473 L 268.85429,385.31325 L 268.16993,385.19093 z M 477.80851,390.37581 L 477.29523,390.84054 L 477.24639,391.10961 L 477.24639,397.3706 L 477.56411,398.00641 L 478.24848,398.12873 L 478.76177,397.63959 L 478.81072,397.3706 L 478.81072,391.10961 L 478.49288,390.49814 L 477.80851,390.37581 z M 268.16993,397.71291 L 267.65665,398.17765 L 267.60781,398.44673 L 267.60781,404.70771 L 267.92553,405.34352 L 268.60989,405.46583 L 269.12317,404.97668 L 269.17211,404.70771 L 269.17211,398.44673 L 268.85429,397.83524 L 268.16993,397.71291 z M 279.90212,511.43805 L 279.26658,511.75593 L 279.14433,512.44074 L 279.60877,512.9543 L 279.90212,513.0033 L 286.15922,513.0033 L 286.77029,512.6853 L 286.89255,512.0005 L 286.42811,511.48687 L 286.15922,511.43805 L 279.90212,511.43805 z M 292.41636,511.43805 L 291.78092,511.75593 L 291.65868,512.44074 L 292.12311,512.9543 L 292.41636,513.0033 L 298.67357,513.0033 L 299.28452,512.6853 L 299.40678,512.0005 L 298.94234,511.48687 L 298.67357,511.43805 L 292.41636,511.43805 z M 304.93069,511.43805 L 304.29516,511.75593 L 304.17291,512.44074 L 304.63734,512.9543 L 304.93069,513.0033 L 311.18781,513.0033 L 311.79888,512.6853 L 311.921,512.0005 L 311.45668,511.48687 L 311.18781,511.43805 L 304.93069,511.43805 z M 317.44492,511.43805 L 316.8095,511.75593 L 316.68724,512.44074 L 317.15169,512.9543 L 317.44492,513.0033 L 323.70203,513.0033 L 324.3131,512.6853 L 324.43536,512.0005 L 323.97091,511.48687 L 323.70203,511.43805 L 317.44492,511.43805 z M 329.95928,511.43805 L 329.32373,511.75593 L 329.20148,512.44074 L 329.66592,512.9543 L 329.95928,513.0033 L 336.21638,513.0033 L 336.82733,512.6853 L 336.94959,512.0005 L 336.48514,511.48687 L 336.21638,511.43805 L 329.95928,511.43805 z M 405.0449,511.43805 L 404.40935,511.75593 L 404.28709,512.44074 L 404.75153,512.9543 L 405.0449,513.0033 L 411.30201,513.0033 L 411.91306,512.6853 L 412.03531,512.0005 L 411.57087,511.48687 L 411.30201,511.43805 L 405.0449,511.43805 z M 417.55912,511.43805 L 416.92369,511.75593 L 416.80142,512.44074 L 417.26589,512.9543 L 417.55912,513.0033 L 423.81634,513.0033 L 424.42729,512.6853 L 424.54954,512.0005 L 424.08511,511.48687 L 423.81634,511.43805 L 417.55912,511.43805 z M 430.07348,511.43805 L 429.43792,511.75593 L 429.31567,512.44074 L 429.78011,512.9543 L 430.07348,513.0033 L 436.33057,513.0033 L 436.94164,512.6853 L 437.06378,512.0005 L 436.59945,511.48687 L 436.33057,511.43805 L 430.07348,511.43805 z M 442.58769,511.43805 L 441.95227,511.75593 L 441.83001,512.44074 L 442.29446,512.9543 L 442.58769,513.0033 L 448.84481,513.0033 L 449.45588,512.6853 L 449.57812,512.0005 L 449.11368,511.48687 L 448.84481,511.43805 L 442.58769,511.43805 z M 455.10204,511.43805 L 454.4665,511.75593 L 454.34423,512.44074 L 454.8087,512.9543 L 455.10204,513.0033 L 461.35915,513.0033 L 461.9701,512.6853 L 462.09235,512.0005 L 461.62791,511.48687 L 461.35915,511.43805 L 455.10204,511.43805 z M 467.61628,511.43805 L 466.98073,511.75593 L 466.85847,512.44074 L 467.32292,512.9543 L 467.61628,513.0033 L 473.87338,513.0033 L 474.48445,512.6853 L 474.60671,512.0005 L 474.14226,511.48687 L 473.87338,511.43805 L 467.61628,511.43805 z"
       style="fill:#b3b3b3;fill-opacity:1;stroke:none;stroke-width:2;stroke-linecap:round;stroke-linejoin:round;stroke-miterlimit:4;stroke-dasharray:8, 8;stroke-dashoffset:0;stroke-opacity:1;display:inline" />
  </g>
</svg>
